<mxfile host="Electron" modified="2025-01-09T16:47:05.312Z" agent="Mozilla/5.0 (Macintosh; Intel Mac OS X 10_15_7) AppleWebKit/537.36 (KHTML, like Gecko) draw.io/22.0.3 Chrome/114.0.5735.289 Electron/25.8.4 Safari/537.36" etag="JaZm1rluu4WBtW5FtBcW" version="22.0.3" type="device">
  <diagram id="C5RBs43oDa-KdzZeNtuy" name="Page-1">
    <mxGraphModel dx="1201" dy="710" grid="1" gridSize="10" guides="1" tooltips="1" connect="1" arrows="1" fold="1" page="1" pageScale="1" pageWidth="827" pageHeight="1169" math="0" shadow="0">
      <root>
        <mxCell id="WIyWlLk6GJQsqaUBKTNV-0" />
        <mxCell id="WIyWlLk6GJQsqaUBKTNV-1" parent="WIyWlLk6GJQsqaUBKTNV-0" />
        <mxCell id="WIyWlLk6GJQsqaUBKTNV-2" value="" style="rounded=0;html=1;jettySize=auto;orthogonalLoop=1;fontSize=11;endArrow=block;endFill=0;endSize=8;strokeWidth=1;shadow=0;labelBackgroundColor=none;edgeStyle=orthogonalEdgeStyle;entryX=0;entryY=0.5;entryDx=0;entryDy=0;" parent="WIyWlLk6GJQsqaUBKTNV-1" source="WIyWlLk6GJQsqaUBKTNV-3" target="LlpQ-gONoQWVYk_UWO3u-1" edge="1">
          <mxGeometry relative="1" as="geometry">
            <mxPoint x="240" y="180" as="targetPoint" />
          </mxGeometry>
        </mxCell>
        <mxCell id="LlpQ-gONoQWVYk_UWO3u-67" style="edgeStyle=orthogonalEdgeStyle;rounded=0;orthogonalLoop=1;jettySize=auto;html=1;dashed=1;dashPattern=1 4;" edge="1" parent="WIyWlLk6GJQsqaUBKTNV-1" source="WIyWlLk6GJQsqaUBKTNV-3" target="LlpQ-gONoQWVYk_UWO3u-54">
          <mxGeometry relative="1" as="geometry">
            <mxPoint x="50" y="200" as="sourcePoint" />
            <mxPoint x="190" y="601.9999999999998" as="targetPoint" />
            <Array as="points">
              <mxPoint x="100" y="550" />
            </Array>
          </mxGeometry>
        </mxCell>
        <mxCell id="WIyWlLk6GJQsqaUBKTNV-3" value="User Action:&lt;br&gt;Choose File" style="rounded=1;whiteSpace=wrap;html=1;fontSize=12;glass=0;strokeWidth=1;shadow=0;fillColor=#1ba1e2;fontColor=#ffffff;strokeColor=#006EAF;" parent="WIyWlLk6GJQsqaUBKTNV-1" vertex="1">
          <mxGeometry x="80" y="160" width="120" height="40" as="geometry" />
        </mxCell>
        <mxCell id="WIyWlLk6GJQsqaUBKTNV-4" value="Yes" style="rounded=0;html=1;jettySize=auto;orthogonalLoop=1;fontSize=11;endArrow=block;endFill=0;endSize=8;strokeWidth=1;shadow=0;labelBackgroundColor=none;edgeStyle=orthogonalEdgeStyle;" parent="WIyWlLk6GJQsqaUBKTNV-1" target="WIyWlLk6GJQsqaUBKTNV-3" edge="1">
          <mxGeometry x="-0.057" y="9" relative="1" as="geometry">
            <mxPoint as="offset" />
            <mxPoint x="300" y="220" as="sourcePoint" />
            <Array as="points">
              <mxPoint x="140" y="221" />
            </Array>
          </mxGeometry>
        </mxCell>
        <mxCell id="LlpQ-gONoQWVYk_UWO3u-5" style="edgeStyle=orthogonalEdgeStyle;rounded=0;orthogonalLoop=1;jettySize=auto;html=1;exitX=1;exitY=0.5;exitDx=0;exitDy=0;entryX=0;entryY=0.5;entryDx=0;entryDy=0;" edge="1" parent="WIyWlLk6GJQsqaUBKTNV-1" source="LlpQ-gONoQWVYk_UWO3u-1" target="LlpQ-gONoQWVYk_UWO3u-4">
          <mxGeometry relative="1" as="geometry" />
        </mxCell>
        <mxCell id="LlpQ-gONoQWVYk_UWO3u-6" value="No" style="edgeLabel;html=1;align=center;verticalAlign=middle;resizable=0;points=[];" vertex="1" connectable="0" parent="LlpQ-gONoQWVYk_UWO3u-5">
          <mxGeometry x="-0.1238" y="1" relative="1" as="geometry">
            <mxPoint y="11" as="offset" />
          </mxGeometry>
        </mxCell>
        <mxCell id="LlpQ-gONoQWVYk_UWO3u-1" value="File IO&lt;br&gt;Errors?" style="rhombus;whiteSpace=wrap;html=1;shadow=0;fontFamily=Helvetica;fontSize=12;align=center;strokeWidth=1;spacing=6;spacingTop=-4;" vertex="1" parent="WIyWlLk6GJQsqaUBKTNV-1">
          <mxGeometry x="250" y="140" width="100" height="80" as="geometry" />
        </mxCell>
        <mxCell id="LlpQ-gONoQWVYk_UWO3u-80" style="edgeStyle=orthogonalEdgeStyle;rounded=0;orthogonalLoop=1;jettySize=auto;html=1;entryX=1;entryY=0.5;entryDx=0;entryDy=0;" edge="1" parent="WIyWlLk6GJQsqaUBKTNV-1" source="LlpQ-gONoQWVYk_UWO3u-3" target="LlpQ-gONoQWVYk_UWO3u-13">
          <mxGeometry relative="1" as="geometry">
            <Array as="points">
              <mxPoint x="630" y="240" />
              <mxPoint x="385" y="240" />
              <mxPoint x="385" y="300" />
            </Array>
          </mxGeometry>
        </mxCell>
        <mxCell id="LlpQ-gONoQWVYk_UWO3u-3" value="Convert file Content into Sudoku data structure" style="rounded=1;whiteSpace=wrap;html=1;fontSize=12;glass=0;strokeWidth=1;shadow=0;fillColor=#60a917;fontColor=#ffffff;strokeColor=#2D7600;" vertex="1" parent="WIyWlLk6GJQsqaUBKTNV-1">
          <mxGeometry x="570" y="160" width="120" height="40" as="geometry" />
        </mxCell>
        <mxCell id="LlpQ-gONoQWVYk_UWO3u-7" style="edgeStyle=orthogonalEdgeStyle;rounded=0;orthogonalLoop=1;jettySize=auto;html=1;entryX=0;entryY=0.5;entryDx=0;entryDy=0;" edge="1" parent="WIyWlLk6GJQsqaUBKTNV-1" source="LlpQ-gONoQWVYk_UWO3u-4" target="LlpQ-gONoQWVYk_UWO3u-3">
          <mxGeometry relative="1" as="geometry" />
        </mxCell>
        <mxCell id="LlpQ-gONoQWVYk_UWO3u-11" value="Yes" style="edgeLabel;html=1;align=center;verticalAlign=middle;resizable=0;points=[];" vertex="1" connectable="0" parent="LlpQ-gONoQWVYk_UWO3u-7">
          <mxGeometry x="-0.281" y="1" relative="1" as="geometry">
            <mxPoint as="offset" />
          </mxGeometry>
        </mxCell>
        <mxCell id="LlpQ-gONoQWVYk_UWO3u-8" style="edgeStyle=orthogonalEdgeStyle;rounded=0;orthogonalLoop=1;jettySize=auto;html=1;exitX=0.5;exitY=0;exitDx=0;exitDy=0;" edge="1" parent="WIyWlLk6GJQsqaUBKTNV-1" source="LlpQ-gONoQWVYk_UWO3u-4" target="WIyWlLk6GJQsqaUBKTNV-3">
          <mxGeometry relative="1" as="geometry">
            <mxPoint x="420" y="110" as="sourcePoint" />
            <mxPoint x="140" y="90" as="targetPoint" />
            <Array as="points">
              <mxPoint x="460" y="120" />
              <mxPoint x="140" y="120" />
            </Array>
          </mxGeometry>
        </mxCell>
        <mxCell id="LlpQ-gONoQWVYk_UWO3u-10" value="No" style="edgeLabel;html=1;align=center;verticalAlign=middle;resizable=0;points=[];" vertex="1" connectable="0" parent="LlpQ-gONoQWVYk_UWO3u-8">
          <mxGeometry x="-0.0116" relative="1" as="geometry">
            <mxPoint as="offset" />
          </mxGeometry>
        </mxCell>
        <mxCell id="LlpQ-gONoQWVYk_UWO3u-4" value="File Content &lt;br&gt;is a sudoku?" style="rhombus;whiteSpace=wrap;html=1;shadow=0;fontFamily=Helvetica;fontSize=12;align=center;strokeWidth=1;spacing=6;spacingTop=-4;" vertex="1" parent="WIyWlLk6GJQsqaUBKTNV-1">
          <mxGeometry x="410" y="140" width="100" height="80" as="geometry" />
        </mxCell>
        <mxCell id="LlpQ-gONoQWVYk_UWO3u-79" style="edgeStyle=orthogonalEdgeStyle;rounded=0;orthogonalLoop=1;jettySize=auto;html=1;exitX=0.5;exitY=1;exitDx=0;exitDy=0;entryX=0;entryY=0.5;entryDx=0;entryDy=0;" edge="1" parent="WIyWlLk6GJQsqaUBKTNV-1" source="LlpQ-gONoQWVYk_UWO3u-13" target="LlpQ-gONoQWVYk_UWO3u-14">
          <mxGeometry relative="1" as="geometry" />
        </mxCell>
        <mxCell id="LlpQ-gONoQWVYk_UWO3u-13" value="Some loaded Sudoku in Sudoku data structure" style="rounded=1;whiteSpace=wrap;html=1;fontSize=12;glass=0;strokeWidth=1;shadow=0;fillColor=#60a917;fontColor=#ffffff;strokeColor=#2D7600;" vertex="1" parent="WIyWlLk6GJQsqaUBKTNV-1">
          <mxGeometry x="110" y="280" width="120" height="40" as="geometry" />
        </mxCell>
        <mxCell id="LlpQ-gONoQWVYk_UWO3u-20" value="No" style="edgeStyle=orthogonalEdgeStyle;rounded=0;orthogonalLoop=1;jettySize=auto;html=1;entryX=0;entryY=0.5;entryDx=0;entryDy=0;" edge="1" parent="WIyWlLk6GJQsqaUBKTNV-1" source="LlpQ-gONoQWVYk_UWO3u-14" target="LlpQ-gONoQWVYk_UWO3u-19">
          <mxGeometry relative="1" as="geometry" />
        </mxCell>
        <mxCell id="LlpQ-gONoQWVYk_UWO3u-56" style="edgeStyle=orthogonalEdgeStyle;rounded=0;orthogonalLoop=1;jettySize=auto;html=1;" edge="1" parent="WIyWlLk6GJQsqaUBKTNV-1" source="LlpQ-gONoQWVYk_UWO3u-14">
          <mxGeometry relative="1" as="geometry">
            <mxPoint x="300" y="520" as="targetPoint" />
          </mxGeometry>
        </mxCell>
        <mxCell id="LlpQ-gONoQWVYk_UWO3u-57" value="Yes" style="edgeLabel;html=1;align=center;verticalAlign=middle;resizable=0;points=[];" vertex="1" connectable="0" parent="LlpQ-gONoQWVYk_UWO3u-56">
          <mxGeometry x="-0.2029" y="-1" relative="1" as="geometry">
            <mxPoint as="offset" />
          </mxGeometry>
        </mxCell>
        <mxCell id="LlpQ-gONoQWVYk_UWO3u-14" value="Logical &lt;br&gt;Sudoku &lt;br&gt;Errors?" style="rhombus;whiteSpace=wrap;html=1;shadow=0;fontFamily=Helvetica;fontSize=12;align=center;strokeWidth=1;spacing=6;spacingTop=-4;" vertex="1" parent="WIyWlLk6GJQsqaUBKTNV-1">
          <mxGeometry x="250" y="330" width="100" height="80" as="geometry" />
        </mxCell>
        <mxCell id="LlpQ-gONoQWVYk_UWO3u-22" style="edgeStyle=orthogonalEdgeStyle;rounded=0;orthogonalLoop=1;jettySize=auto;html=1;entryX=0;entryY=0.5;entryDx=0;entryDy=0;" edge="1" parent="WIyWlLk6GJQsqaUBKTNV-1" source="LlpQ-gONoQWVYk_UWO3u-19" target="LlpQ-gONoQWVYk_UWO3u-21">
          <mxGeometry relative="1" as="geometry" />
        </mxCell>
        <mxCell id="LlpQ-gONoQWVYk_UWO3u-41" value="No" style="edgeLabel;html=1;align=center;verticalAlign=middle;resizable=0;points=[];" vertex="1" connectable="0" parent="LlpQ-gONoQWVYk_UWO3u-22">
          <mxGeometry x="-0.1603" y="2" relative="1" as="geometry">
            <mxPoint as="offset" />
          </mxGeometry>
        </mxCell>
        <mxCell id="LlpQ-gONoQWVYk_UWO3u-42" style="edgeStyle=orthogonalEdgeStyle;rounded=0;orthogonalLoop=1;jettySize=auto;html=1;entryX=0.5;entryY=0;entryDx=0;entryDy=0;" edge="1" parent="WIyWlLk6GJQsqaUBKTNV-1" source="LlpQ-gONoQWVYk_UWO3u-19" target="LlpQ-gONoQWVYk_UWO3u-26">
          <mxGeometry relative="1" as="geometry">
            <mxPoint x="460" y="444" as="targetPoint" />
          </mxGeometry>
        </mxCell>
        <mxCell id="LlpQ-gONoQWVYk_UWO3u-43" value="Yes" style="edgeLabel;html=1;align=center;verticalAlign=middle;resizable=0;points=[];" vertex="1" connectable="0" parent="LlpQ-gONoQWVYk_UWO3u-42">
          <mxGeometry x="-0.4099" relative="1" as="geometry">
            <mxPoint as="offset" />
          </mxGeometry>
        </mxCell>
        <mxCell id="LlpQ-gONoQWVYk_UWO3u-19" value="Sudoku is solved" style="rhombus;whiteSpace=wrap;html=1;shadow=0;fontFamily=Helvetica;fontSize=12;align=center;strokeWidth=1;spacing=6;spacingTop=-4;" vertex="1" parent="WIyWlLk6GJQsqaUBKTNV-1">
          <mxGeometry x="410" y="290" width="100" height="80" as="geometry" />
        </mxCell>
        <mxCell id="LlpQ-gONoQWVYk_UWO3u-24" style="edgeStyle=orthogonalEdgeStyle;rounded=0;orthogonalLoop=1;jettySize=auto;html=1;entryX=0.5;entryY=1;entryDx=0;entryDy=0;" edge="1" parent="WIyWlLk6GJQsqaUBKTNV-1" source="LlpQ-gONoQWVYk_UWO3u-21" target="LlpQ-gONoQWVYk_UWO3u-23">
          <mxGeometry relative="1" as="geometry" />
        </mxCell>
        <mxCell id="LlpQ-gONoQWVYk_UWO3u-60" style="edgeStyle=orthogonalEdgeStyle;rounded=0;orthogonalLoop=1;jettySize=auto;html=1;dashed=1;dashPattern=1 4;" edge="1" parent="WIyWlLk6GJQsqaUBKTNV-1" source="LlpQ-gONoQWVYk_UWO3u-21" target="LlpQ-gONoQWVYk_UWO3u-54">
          <mxGeometry relative="1" as="geometry">
            <mxPoint x="300" y="580" as="targetPoint" />
            <Array as="points">
              <mxPoint x="630" y="560" />
            </Array>
          </mxGeometry>
        </mxCell>
        <mxCell id="LlpQ-gONoQWVYk_UWO3u-21" value="User Action:&lt;br&gt;choose a solver" style="rounded=1;whiteSpace=wrap;html=1;fontSize=12;glass=0;strokeWidth=1;shadow=0;fillColor=#1ba1e2;fontColor=#ffffff;strokeColor=#006EAF;" vertex="1" parent="WIyWlLk6GJQsqaUBKTNV-1">
          <mxGeometry x="570" y="350" width="120" height="40" as="geometry" />
        </mxCell>
        <mxCell id="LlpQ-gONoQWVYk_UWO3u-25" style="edgeStyle=orthogonalEdgeStyle;rounded=0;orthogonalLoop=1;jettySize=auto;html=1;" edge="1" parent="WIyWlLk6GJQsqaUBKTNV-1" source="LlpQ-gONoQWVYk_UWO3u-23" target="LlpQ-gONoQWVYk_UWO3u-19">
          <mxGeometry relative="1" as="geometry">
            <Array as="points">
              <mxPoint x="470" y="290" />
              <mxPoint x="470" y="290" />
            </Array>
          </mxGeometry>
        </mxCell>
        <mxCell id="LlpQ-gONoQWVYk_UWO3u-23" value="Run solver until it is done" style="rounded=1;whiteSpace=wrap;html=1;fontSize=12;glass=0;strokeWidth=1;shadow=0;" vertex="1" parent="WIyWlLk6GJQsqaUBKTNV-1">
          <mxGeometry x="570" y="270" width="120" height="40" as="geometry" />
        </mxCell>
        <mxCell id="LlpQ-gONoQWVYk_UWO3u-65" style="edgeStyle=orthogonalEdgeStyle;rounded=0;orthogonalLoop=1;jettySize=auto;html=1;dashed=1;dashPattern=1 4;" edge="1" parent="WIyWlLk6GJQsqaUBKTNV-1" source="LlpQ-gONoQWVYk_UWO3u-26">
          <mxGeometry relative="1" as="geometry">
            <mxPoint x="313" y="520" as="targetPoint" />
          </mxGeometry>
        </mxCell>
        <mxCell id="LlpQ-gONoQWVYk_UWO3u-69" value="" style="edgeStyle=orthogonalEdgeStyle;rounded=0;orthogonalLoop=1;jettySize=auto;html=1;" edge="1" parent="WIyWlLk6GJQsqaUBKTNV-1" source="LlpQ-gONoQWVYk_UWO3u-26" target="LlpQ-gONoQWVYk_UWO3u-34">
          <mxGeometry relative="1" as="geometry" />
        </mxCell>
        <mxCell id="LlpQ-gONoQWVYk_UWO3u-26" value="User Action:&lt;br&gt;Save sudoku" style="rounded=1;whiteSpace=wrap;html=1;fontSize=12;glass=0;strokeWidth=1;shadow=0;fillColor=#1ba1e2;fontColor=#ffffff;strokeColor=#006EAF;" vertex="1" parent="WIyWlLk6GJQsqaUBKTNV-1">
          <mxGeometry x="400" y="410" width="120" height="40" as="geometry" />
        </mxCell>
        <mxCell id="LlpQ-gONoQWVYk_UWO3u-53" style="edgeStyle=orthogonalEdgeStyle;rounded=0;orthogonalLoop=1;jettySize=auto;html=1;" edge="1" parent="WIyWlLk6GJQsqaUBKTNV-1" source="LlpQ-gONoQWVYk_UWO3u-34" target="LlpQ-gONoQWVYk_UWO3u-54">
          <mxGeometry relative="1" as="geometry">
            <mxPoint x="220" y="484" as="targetPoint" />
          </mxGeometry>
        </mxCell>
        <mxCell id="LlpQ-gONoQWVYk_UWO3u-62" value="No" style="edgeLabel;html=1;align=center;verticalAlign=middle;resizable=0;points=[];" vertex="1" connectable="0" parent="LlpQ-gONoQWVYk_UWO3u-53">
          <mxGeometry x="-0.2582" relative="1" as="geometry">
            <mxPoint as="offset" />
          </mxGeometry>
        </mxCell>
        <mxCell id="LlpQ-gONoQWVYk_UWO3u-63" style="edgeStyle=orthogonalEdgeStyle;rounded=0;orthogonalLoop=1;jettySize=auto;html=1;entryX=1;entryY=0.5;entryDx=0;entryDy=0;exitX=1;exitY=0.5;exitDx=0;exitDy=0;" edge="1" parent="WIyWlLk6GJQsqaUBKTNV-1" source="LlpQ-gONoQWVYk_UWO3u-34" target="LlpQ-gONoQWVYk_UWO3u-26">
          <mxGeometry relative="1" as="geometry">
            <mxPoint x="540" y="542.0000000000002" as="sourcePoint" />
            <mxPoint x="553.72" y="432.31999999999994" as="targetPoint" />
            <Array as="points">
              <mxPoint x="560" y="510" />
              <mxPoint x="560" y="430" />
            </Array>
          </mxGeometry>
        </mxCell>
        <mxCell id="LlpQ-gONoQWVYk_UWO3u-64" value="Yes" style="edgeLabel;html=1;align=center;verticalAlign=middle;resizable=0;points=[];" vertex="1" connectable="0" parent="LlpQ-gONoQWVYk_UWO3u-63">
          <mxGeometry x="-0.0462" y="2" relative="1" as="geometry">
            <mxPoint as="offset" />
          </mxGeometry>
        </mxCell>
        <mxCell id="LlpQ-gONoQWVYk_UWO3u-34" value="File IO&lt;br&gt;Errors?" style="rhombus;whiteSpace=wrap;html=1;shadow=0;fontFamily=Helvetica;fontSize=12;align=center;strokeWidth=1;spacing=6;spacingTop=-4;" vertex="1" parent="WIyWlLk6GJQsqaUBKTNV-1">
          <mxGeometry x="410" y="470" width="100" height="80" as="geometry" />
        </mxCell>
        <mxCell id="LlpQ-gONoQWVYk_UWO3u-54" value="End Program" style="verticalLabelPosition=bottom;verticalAlign=top;html=1;shape=mxgraph.basic.x;" vertex="1" parent="WIyWlLk6GJQsqaUBKTNV-1">
          <mxGeometry x="280" y="524" width="40" height="36" as="geometry" />
        </mxCell>
        <mxCell id="LlpQ-gONoQWVYk_UWO3u-77" value="" style="shape=flexArrow;endArrow=classic;html=1;rounded=0;" edge="1" parent="WIyWlLk6GJQsqaUBKTNV-1">
          <mxGeometry width="50" height="50" relative="1" as="geometry">
            <mxPoint x="100" y="120" as="sourcePoint" />
            <mxPoint x="100" y="160" as="targetPoint" />
          </mxGeometry>
        </mxCell>
        <mxCell id="LlpQ-gONoQWVYk_UWO3u-78" value="Start" style="text;html=1;align=center;verticalAlign=middle;resizable=0;points=[];autosize=1;strokeColor=none;fillColor=none;" vertex="1" parent="WIyWlLk6GJQsqaUBKTNV-1">
          <mxGeometry x="75" y="90" width="50" height="30" as="geometry" />
        </mxCell>
      </root>
    </mxGraphModel>
  </diagram>
</mxfile>
